<mxfile host="app.diagrams.net" modified="2023-03-13T08:36:33.921Z" agent="5.0 (Windows NT 10.0; Win64; x64) AppleWebKit/537.36 (KHTML, like Gecko) Chrome/110.0.0.0 Safari/537.36" version="20.8.5" etag="BaQFPaO6KAq4cKo5M0pL" type="github">
  <diagram id="mAwPywy2Z5beJabGR0Ek" name="第 1 页">
    <mxGraphModel dx="1434" dy="1933" grid="1" gridSize="10" guides="1" tooltips="1" connect="1" arrows="1" fold="1" page="1" pageScale="1" pageWidth="827" pageHeight="1169" math="0" shadow="0">
      <root>
        <mxCell id="0" />
        <mxCell id="1" parent="0" />
        <mxCell id="RVYkzMDDN3Z4zyVPG27h-75" value="" style="rounded=0;whiteSpace=wrap;html=1;fontSize=14;fillColor=#f5f5f5;fontColor=#333333;strokeColor=#C4C4C4;sketch=1;curveFitting=1;jiggle=2;" vertex="1" parent="1">
          <mxGeometry x="70" y="-610" width="1350" height="774" as="geometry" />
        </mxCell>
        <mxCell id="RVYkzMDDN3Z4zyVPG27h-36" value="" style="rounded=0;whiteSpace=wrap;html=1;fillColor=#dae8fc;strokeColor=#6c8ebf;" vertex="1" parent="1">
          <mxGeometry x="360" y="-520" width="611" height="380" as="geometry" />
        </mxCell>
        <mxCell id="RVYkzMDDN3Z4zyVPG27h-3" value="" style="rounded=0;whiteSpace=wrap;html=1;fillColor=#f5f5f5;strokeColor=#666666;fontColor=#333333;" vertex="1" parent="1">
          <mxGeometry x="510" y="-490" width="400" height="280" as="geometry" />
        </mxCell>
        <mxCell id="RVYkzMDDN3Z4zyVPG27h-24" value="" style="edgeStyle=orthogonalEdgeStyle;rounded=0;orthogonalLoop=1;jettySize=auto;html=1;dashed=1;" edge="1" parent="1" source="RVYkzMDDN3Z4zyVPG27h-5" target="RVYkzMDDN3Z4zyVPG27h-23">
          <mxGeometry relative="1" as="geometry" />
        </mxCell>
        <mxCell id="RVYkzMDDN3Z4zyVPG27h-34" style="edgeStyle=orthogonalEdgeStyle;rounded=0;orthogonalLoop=1;jettySize=auto;html=1;dashed=1;" edge="1" parent="1" source="RVYkzMDDN3Z4zyVPG27h-5" target="RVYkzMDDN3Z4zyVPG27h-33">
          <mxGeometry relative="1" as="geometry" />
        </mxCell>
        <mxCell id="RVYkzMDDN3Z4zyVPG27h-5" value="Nginx(docker port:80)" style="verticalLabelPosition=bottom;html=1;verticalAlign=top;align=center;strokeColor=none;fillColor=#00BEF2;shape=mxgraph.azure.azure_load_balancer;shadow=0;" vertex="1" parent="1">
          <mxGeometry x="654" y="-460" width="120" height="35" as="geometry" />
        </mxCell>
        <mxCell id="RVYkzMDDN3Z4zyVPG27h-10" value="Redis(docker port:6379)" style="sketch=0;aspect=fixed;html=1;points=[];align=center;image;fontSize=12;image=img/lib/mscae/Cache_Redis_Product.svg;" vertex="1" parent="1">
          <mxGeometry x="827" y="-306.25" width="51.19" height="43" as="geometry" />
        </mxCell>
        <mxCell id="RVYkzMDDN3Z4zyVPG27h-25" style="edgeStyle=orthogonalEdgeStyle;rounded=0;orthogonalLoop=1;jettySize=auto;html=1;dashed=1;" edge="1" parent="1" source="RVYkzMDDN3Z4zyVPG27h-23" target="RVYkzMDDN3Z4zyVPG27h-10">
          <mxGeometry relative="1" as="geometry" />
        </mxCell>
        <mxCell id="RVYkzMDDN3Z4zyVPG27h-35" style="edgeStyle=orthogonalEdgeStyle;rounded=0;orthogonalLoop=1;jettySize=auto;html=1;dashed=1;" edge="1" parent="1" source="RVYkzMDDN3Z4zyVPG27h-23" target="RVYkzMDDN3Z4zyVPG27h-27">
          <mxGeometry relative="1" as="geometry" />
        </mxCell>
        <mxCell id="RVYkzMDDN3Z4zyVPG27h-23" value="&lt;div style=&quot;&quot;&gt;&lt;span style=&quot;background-color: initial;&quot;&gt;后端服务&lt;/span&gt;&lt;/div&gt;&lt;div style=&quot;&quot;&gt;(docker port:&lt;span style=&quot;background-color: initial; text-align: left;&quot;&gt;38038&lt;/span&gt;&lt;span style=&quot;background-color: initial;&quot;&gt;)&lt;/span&gt;&lt;/div&gt;" style="whiteSpace=wrap;html=1;verticalAlign=top;fillColor=#00BEF2;strokeColor=none;align=center;rounded=1;" vertex="1" parent="1">
          <mxGeometry x="580" y="-309.5" width="170" height="49.5" as="geometry" />
        </mxCell>
        <mxCell id="RVYkzMDDN3Z4zyVPG27h-26" value="Vhost&amp;nbsp;192.168.82.25" style="text;html=1;strokeColor=#666666;fillColor=#f5f5f5;align=center;verticalAlign=middle;whiteSpace=wrap;rounded=1;fontColor=#333333;glass=0;shadow=1;" vertex="1" parent="1">
          <mxGeometry x="510" y="-490" width="130" height="30" as="geometry" />
        </mxCell>
        <mxCell id="RVYkzMDDN3Z4zyVPG27h-27" value="192.168.82.42:3306" style="outlineConnect=0;dashed=0;verticalLabelPosition=bottom;verticalAlign=top;align=center;html=1;shape=mxgraph.aws3.mysql_db_instance;fillColor=#2E73B8;gradientColor=none;" vertex="1" parent="1">
          <mxGeometry x="388.5" y="-317" width="60" height="64.5" as="geometry" />
        </mxCell>
        <mxCell id="RVYkzMDDN3Z4zyVPG27h-33" value="前端静态文件" style="shape=image;html=1;verticalAlign=top;verticalLabelPosition=bottom;labelBackgroundColor=#ffffff;imageAspect=0;aspect=fixed;image=https://cdn2.iconfinder.com/data/icons/boxicons-solid-vol-2/24/bxs-file-html-128.png" vertex="1" parent="1">
          <mxGeometry x="790" y="-410" width="63.5" height="63.5" as="geometry" />
        </mxCell>
        <mxCell id="RVYkzMDDN3Z4zyVPG27h-37" value="OPS PUBLIC环境" style="text;html=1;strokeColor=#666666;fillColor=#f5f5f5;align=center;verticalAlign=middle;whiteSpace=wrap;rounded=1;fontColor=#333333;shadow=1;" vertex="1" parent="1">
          <mxGeometry x="360" y="-172" width="130" height="30" as="geometry" />
        </mxCell>
        <mxCell id="RVYkzMDDN3Z4zyVPG27h-38" value="" style="rounded=0;whiteSpace=wrap;html=1;fillColor=#fff2cc;strokeColor=#d6b656;" vertex="1" parent="1">
          <mxGeometry x="140" y="-50" width="380" height="160" as="geometry" />
        </mxCell>
        <mxCell id="RVYkzMDDN3Z4zyVPG27h-39" value="UP1 TEST" style="text;html=1;strokeColor=#666666;fillColor=#f5f5f5;align=center;verticalAlign=middle;whiteSpace=wrap;rounded=1;fontColor=#333333;shadow=1;" vertex="1" parent="1">
          <mxGeometry x="141" y="79" width="130" height="30" as="geometry" />
        </mxCell>
        <mxCell id="RVYkzMDDN3Z4zyVPG27h-44" style="edgeStyle=orthogonalEdgeStyle;rounded=0;orthogonalLoop=1;jettySize=auto;html=1;dashed=1;" edge="1" parent="1" source="RVYkzMDDN3Z4zyVPG27h-40" target="RVYkzMDDN3Z4zyVPG27h-43">
          <mxGeometry relative="1" as="geometry" />
        </mxCell>
        <mxCell id="RVYkzMDDN3Z4zyVPG27h-46" style="edgeStyle=orthogonalEdgeStyle;rounded=0;orthogonalLoop=1;jettySize=auto;html=1;entryX=0;entryY=0.5;entryDx=0;entryDy=0;dashed=1;" edge="1" parent="1" source="RVYkzMDDN3Z4zyVPG27h-40" target="RVYkzMDDN3Z4zyVPG27h-45">
          <mxGeometry relative="1" as="geometry" />
        </mxCell>
        <mxCell id="RVYkzMDDN3Z4zyVPG27h-40" value="Agent:38018" style="sketch=0;outlineConnect=0;fontColor=#232F3E;gradientColor=none;fillColor=#067F68;strokeColor=none;dashed=0;verticalLabelPosition=bottom;verticalAlign=top;align=center;html=1;fontSize=12;fontStyle=0;aspect=fixed;shape=mxgraph.aws4.agent2;" vertex="1" parent="1">
          <mxGeometry x="180" y="-10" width="50" height="50" as="geometry" />
        </mxCell>
        <mxCell id="RVYkzMDDN3Z4zyVPG27h-41" style="edgeStyle=orthogonalEdgeStyle;rounded=0;orthogonalLoop=1;jettySize=auto;html=1;dashed=1;" edge="1" parent="1" source="RVYkzMDDN3Z4zyVPG27h-23" target="RVYkzMDDN3Z4zyVPG27h-40">
          <mxGeometry relative="1" as="geometry">
            <Array as="points">
              <mxPoint x="660" y="-90" />
              <mxPoint x="205" y="-90" />
            </Array>
          </mxGeometry>
        </mxCell>
        <mxCell id="RVYkzMDDN3Z4zyVPG27h-67" value="private network" style="edgeLabel;html=1;align=center;verticalAlign=middle;resizable=0;points=[];fontSize=14;" vertex="1" connectable="0" parent="RVYkzMDDN3Z4zyVPG27h-41">
          <mxGeometry x="0.1999" y="-3" relative="1" as="geometry">
            <mxPoint as="offset" />
          </mxGeometry>
        </mxCell>
        <mxCell id="RVYkzMDDN3Z4zyVPG27h-43" value="Service1" style="whiteSpace=wrap;html=1;verticalAlign=top;fillColor=#f5f5f5;strokeColor=#666666;align=center;fontColor=#333333;rounded=1;" vertex="1" parent="1">
          <mxGeometry x="356" y="-40" width="115" height="40" as="geometry" />
        </mxCell>
        <mxCell id="RVYkzMDDN3Z4zyVPG27h-45" value="Service2" style="whiteSpace=wrap;html=1;verticalAlign=top;fillColor=#f5f5f5;strokeColor=#666666;align=center;fontColor=#333333;rounded=1;" vertex="1" parent="1">
          <mxGeometry x="355" y="35" width="115" height="40" as="geometry" />
        </mxCell>
        <mxCell id="RVYkzMDDN3Z4zyVPG27h-48" value="" style="rounded=0;whiteSpace=wrap;html=1;fillColor=#fff2cc;strokeColor=#d6b656;" vertex="1" parent="1">
          <mxGeometry x="570" y="-50" width="380" height="160" as="geometry" />
        </mxCell>
        <mxCell id="RVYkzMDDN3Z4zyVPG27h-49" value="UP1 PROD" style="text;html=1;strokeColor=#666666;fillColor=#f5f5f5;align=center;verticalAlign=middle;whiteSpace=wrap;rounded=1;fontColor=#333333;shadow=1;" vertex="1" parent="1">
          <mxGeometry x="571" y="79" width="130" height="30" as="geometry" />
        </mxCell>
        <mxCell id="RVYkzMDDN3Z4zyVPG27h-50" style="edgeStyle=orthogonalEdgeStyle;rounded=0;orthogonalLoop=1;jettySize=auto;html=1;dashed=1;" edge="1" parent="1" source="RVYkzMDDN3Z4zyVPG27h-52" target="RVYkzMDDN3Z4zyVPG27h-53">
          <mxGeometry relative="1" as="geometry" />
        </mxCell>
        <mxCell id="RVYkzMDDN3Z4zyVPG27h-51" style="edgeStyle=orthogonalEdgeStyle;rounded=0;orthogonalLoop=1;jettySize=auto;html=1;entryX=0;entryY=0.5;entryDx=0;entryDy=0;dashed=1;" edge="1" parent="1" source="RVYkzMDDN3Z4zyVPG27h-52" target="RVYkzMDDN3Z4zyVPG27h-54">
          <mxGeometry relative="1" as="geometry" />
        </mxCell>
        <mxCell id="RVYkzMDDN3Z4zyVPG27h-52" value="Agent:38018" style="sketch=0;outlineConnect=0;fontColor=#232F3E;gradientColor=none;fillColor=#067F68;strokeColor=none;dashed=0;verticalLabelPosition=bottom;verticalAlign=top;align=center;html=1;fontSize=12;fontStyle=0;aspect=fixed;shape=mxgraph.aws4.agent2;" vertex="1" parent="1">
          <mxGeometry x="610" y="-10" width="50" height="50" as="geometry" />
        </mxCell>
        <mxCell id="RVYkzMDDN3Z4zyVPG27h-53" value="Service1" style="whiteSpace=wrap;html=1;verticalAlign=top;fillColor=#f5f5f5;strokeColor=#666666;align=center;fontColor=#333333;rounded=1;" vertex="1" parent="1">
          <mxGeometry x="786" y="-40" width="115" height="40" as="geometry" />
        </mxCell>
        <mxCell id="RVYkzMDDN3Z4zyVPG27h-54" value="Service2" style="whiteSpace=wrap;html=1;verticalAlign=top;fillColor=#f5f5f5;strokeColor=#666666;align=center;fontColor=#333333;rounded=1;" vertex="1" parent="1">
          <mxGeometry x="785" y="35" width="115" height="40" as="geometry" />
        </mxCell>
        <mxCell id="RVYkzMDDN3Z4zyVPG27h-55" value="" style="rounded=0;whiteSpace=wrap;html=1;fillColor=#fff2cc;strokeColor=#d6b656;" vertex="1" parent="1">
          <mxGeometry x="990" y="-50" width="380" height="160" as="geometry" />
        </mxCell>
        <mxCell id="RVYkzMDDN3Z4zyVPG27h-56" value="UP~N ENV" style="text;html=1;strokeColor=#666666;fillColor=#f5f5f5;align=center;verticalAlign=middle;whiteSpace=wrap;rounded=1;fontColor=#333333;shadow=1;" vertex="1" parent="1">
          <mxGeometry x="991" y="79" width="130" height="30" as="geometry" />
        </mxCell>
        <mxCell id="RVYkzMDDN3Z4zyVPG27h-57" style="edgeStyle=orthogonalEdgeStyle;rounded=0;orthogonalLoop=1;jettySize=auto;html=1;dashed=1;" edge="1" parent="1" source="RVYkzMDDN3Z4zyVPG27h-59" target="RVYkzMDDN3Z4zyVPG27h-60">
          <mxGeometry relative="1" as="geometry" />
        </mxCell>
        <mxCell id="RVYkzMDDN3Z4zyVPG27h-58" style="edgeStyle=orthogonalEdgeStyle;rounded=0;orthogonalLoop=1;jettySize=auto;html=1;entryX=0;entryY=0.5;entryDx=0;entryDy=0;dashed=1;" edge="1" parent="1" source="RVYkzMDDN3Z4zyVPG27h-59" target="RVYkzMDDN3Z4zyVPG27h-61">
          <mxGeometry relative="1" as="geometry" />
        </mxCell>
        <mxCell id="RVYkzMDDN3Z4zyVPG27h-59" value="Agent:38018" style="sketch=0;outlineConnect=0;fontColor=#232F3E;gradientColor=none;fillColor=#067F68;strokeColor=none;dashed=0;verticalLabelPosition=bottom;verticalAlign=top;align=center;html=1;fontSize=12;fontStyle=0;aspect=fixed;shape=mxgraph.aws4.agent2;" vertex="1" parent="1">
          <mxGeometry x="1030" y="-10" width="50" height="50" as="geometry" />
        </mxCell>
        <mxCell id="RVYkzMDDN3Z4zyVPG27h-60" value="Service1" style="whiteSpace=wrap;html=1;verticalAlign=top;fillColor=#f5f5f5;strokeColor=#666666;align=center;fontColor=#333333;rounded=1;" vertex="1" parent="1">
          <mxGeometry x="1206" y="-40" width="115" height="40" as="geometry" />
        </mxCell>
        <mxCell id="RVYkzMDDN3Z4zyVPG27h-61" value="Service2" style="whiteSpace=wrap;html=1;verticalAlign=top;fillColor=#f5f5f5;strokeColor=#666666;align=center;fontColor=#333333;rounded=1;" vertex="1" parent="1">
          <mxGeometry x="1205" y="35" width="115" height="40" as="geometry" />
        </mxCell>
        <mxCell id="RVYkzMDDN3Z4zyVPG27h-63" style="edgeStyle=orthogonalEdgeStyle;rounded=0;orthogonalLoop=1;jettySize=auto;html=1;dashed=1;" edge="1" parent="1">
          <mxGeometry relative="1" as="geometry">
            <mxPoint x="670" y="-260" as="sourcePoint" />
            <mxPoint x="640" y="-9.964772727272702" as="targetPoint" />
            <Array as="points">
              <mxPoint x="660" y="-260" />
              <mxPoint x="660" y="-90" />
              <mxPoint x="640" y="-90" />
            </Array>
          </mxGeometry>
        </mxCell>
        <mxCell id="RVYkzMDDN3Z4zyVPG27h-72" value="puclic network" style="edgeLabel;html=1;align=center;verticalAlign=middle;resizable=0;points=[];fontSize=14;" vertex="1" connectable="0" parent="RVYkzMDDN3Z4zyVPG27h-63">
          <mxGeometry x="0.5855" y="-1" relative="1" as="geometry">
            <mxPoint as="offset" />
          </mxGeometry>
        </mxCell>
        <mxCell id="RVYkzMDDN3Z4zyVPG27h-65" style="edgeStyle=orthogonalEdgeStyle;rounded=0;orthogonalLoop=1;jettySize=auto;html=1;dashed=1;" edge="1" parent="1" source="RVYkzMDDN3Z4zyVPG27h-23" target="RVYkzMDDN3Z4zyVPG27h-59">
          <mxGeometry relative="1" as="geometry">
            <Array as="points">
              <mxPoint x="660" y="-90" />
              <mxPoint x="1055" y="-90" />
            </Array>
          </mxGeometry>
        </mxCell>
        <mxCell id="RVYkzMDDN3Z4zyVPG27h-69" style="edgeStyle=orthogonalEdgeStyle;rounded=0;orthogonalLoop=1;jettySize=auto;html=1;dashed=1;" edge="1" parent="1" source="RVYkzMDDN3Z4zyVPG27h-68" target="RVYkzMDDN3Z4zyVPG27h-5">
          <mxGeometry relative="1" as="geometry" />
        </mxCell>
        <mxCell id="RVYkzMDDN3Z4zyVPG27h-70" value="http://gm.up" style="edgeLabel;html=1;align=center;verticalAlign=middle;resizable=0;points=[];fontSize=17;" vertex="1" connectable="0" parent="RVYkzMDDN3Z4zyVPG27h-69">
          <mxGeometry x="-0.6916" y="-1" relative="1" as="geometry">
            <mxPoint x="-10" y="-2" as="offset" />
          </mxGeometry>
        </mxCell>
        <mxCell id="RVYkzMDDN3Z4zyVPG27h-73" value="private network" style="edgeLabel;html=1;align=center;verticalAlign=middle;resizable=0;points=[];fontSize=14;" vertex="1" connectable="0" parent="RVYkzMDDN3Z4zyVPG27h-69">
          <mxGeometry x="-0.2403" relative="1" as="geometry">
            <mxPoint x="35" as="offset" />
          </mxGeometry>
        </mxCell>
        <mxCell id="RVYkzMDDN3Z4zyVPG27h-68" value="User" style="verticalLabelPosition=bottom;shadow=0;dashed=0;align=center;html=1;verticalAlign=top;strokeWidth=1;shape=mxgraph.mockup.containers.userMale;strokeColor=#666666;strokeColor2=#008cff;" vertex="1" parent="1">
          <mxGeometry x="130" y="-490" width="100" height="100" as="geometry" />
        </mxCell>
      </root>
    </mxGraphModel>
  </diagram>
</mxfile>
